<?xml version="1.0" encoding="UTF-8" standalone="no"?>
<!-- Created with Inkscape (http://www.inkscape.org/) -->

<svg
   width="60mm"
   height="60mm"
   viewBox="0 0 60 60"
   version="1.1"
   id="svg1"
   inkscape:version="1.3 (1:1.3+202307231459+0e150ed6c4)"
   sodipodi:docname="starburst_logo_src.svg"
   xmlns:inkscape="http://www.inkscape.org/namespaces/inkscape"
   xmlns:sodipodi="http://sodipodi.sourceforge.net/DTD/sodipodi-0.dtd"
   xmlns="http://www.w3.org/2000/svg"
   xmlns:svg="http://www.w3.org/2000/svg">
  <sodipodi:namedview
     id="namedview1"
     pagecolor="#ffffff"
     bordercolor="#666666"
     borderopacity="1.0"
     inkscape:showpageshadow="true"
     inkscape:pageopacity="0.0"
     inkscape:pagecheckerboard="false"
     inkscape:deskcolor="#d1d1d1"
     inkscape:document-units="mm"
     labelstyle="default"
     inkscape:zoom="0.75746063"
     inkscape:cx="581.54837"
     inkscape:cy="236.97601"
     inkscape:window-width="1920"
     inkscape:window-height="1062"
     inkscape:window-x="0"
     inkscape:window-y="18"
     inkscape:window-maximized="1"
     inkscape:current-layer="layer1" />
  <defs
     id="defs1" />
  <g
     inkscape:label="Layer 1"
     inkscape:groupmode="layer"
     id="layer1"
     transform="translate(-79.639583,-120.65)">
    <path
       id="path6739"
       style="fill:none;stroke:#000000;stroke-width:0.3;stroke-linejoin:round;stroke-linecap:butt"
       d="m 105.68627,122.91584 1.20562,23.32157 1.53737,-0.13074 z m -4.99194,11.85767 5.47202,14.05599 0.91622,-0.39222 z m -2.367814,-0.20102 7.343224,14.27717 0.41444,-0.231 -1.25677,-3.22926 z m -0.416,5.87148 7.826914,9.63559 0.61909,-0.53847 -0.65733,-0.70797 -0.0294,0.0165 -0.0558,-0.10852 z m -2.592088,-2.12907 9.824732,11.39052 0.16588,-0.15296 -5.06946,-6.24148 z m -8.312671,0.006 16.412443,11.60343 0.73018,-1.10898 z m -2.086694,4.81315 18.191657,7.84448 0.47853,-1.21905 -0.0507,-0.0181 -0.1204,0.18293 -0.64079,-0.45268 z m -0.75861,3.92947 18.896007,4.7501 0.27234,-1.25832 -0.0486,-0.009 -0.1695,0.43202 -1.8588,-0.8015 z m 3.647839,2.29495 16.065178,2.83601 0.15244,-1.06712 -0.80202,-0.0873 -0.16743,0.7736 -5.565555,-1.39888 z m 14.415658,2.54455 -17.703829,1.25936 18.770949,-0.092 -0.0372,-0.98547 z m 2.7001,0.66301 -1.63608,0.41961 0.003,0.0847 -0.33951,0.002 -10.02265,2.57142 12.17239,-2.27841 z m -1.65313,1.60404 -17.223244,10.06967 17.850594,-8.91005 z m 1.54254,0.62735 -11.075297,11.49439 11.810137,-10.73785 z m -0.25942,1.66088 -4.819344,4.38113 -9.504329,11.18691 14.739673,-15.19029 z m 1.7291,-1.67173 -5.58106,10.57351 6.2668,-10.18181 z m -0.74673,2.71921 -0.78548,1.27641 -7.300332,19.55798 9.183422,-20.38274 z m 1.24179,-0.87488 -0.19947,1.30379 0.0553,0.0227 -0.0884,0.19637 -2.39261,15.65641 3.75377,-16.96847 z m 2.25206,-0.71779 -0.93328,0.0977 1.93942,14.06839 z m -0.91984,0.19482 -0.10852,0.009 1.64796,14.52366 -0.23926,-5.10202 z m 2.64015,0.17208 -1.07849,0.51315 8.30285,16.05535 z m 0.79478,-0.24494 -0.6935,0.47801 0.75861,1.73891 10.27896,13.91026 z m -0.70538,-0.98599 -0.77515,0.57413 0.56586,0.71365 0.11989,-0.0568 0.10128,0.23307 0.67696,-0.46664 z m 1.02784,1.48932 4.56716,7.11946 2.70113,3.40754 z m 0.95395,-0.61495 -0.82063,0.80822 0.91106,1.31878 15.09675,14.34693 z m -0.20258,-1.45779 -0.68626,1.03507 0.81029,0.49972 0.0786,-0.077 0.26871,0.29145 14.83114,9.14931 z m 1.44695,-0.51522 -0.50695,1.18443 0.81597,0.58136 20.71657,8.0703 z m -0.66043,-1.93425 -0.10232,1.3069 19.81326,0.89452 z m 17.39532,-0.60409 -17.94981,0.0822 0.045,1.18546 0.45992,-0.0326 0.0496,-0.63097 3.43855,0.38396 z m 2.88406,-7.04402 -20.41942,5.58881 0.41341,1.33635 z m -0.0537,-0.006 -20.37705,5.59449 0.41393,1.33377 0.009,-0.003 -0.41186,-1.33066 20.08766,-5.49786 z m -9.95908,-1.54771 -12.52585,7.08225 0.49506,0.81184 z m 1.28209,-6.90087 -13.72216,12.51706 0.85628,0.87902 z m -0.29146,-8.61705 -13.71699,19.35283 1.29863,0.85782 0.0284,-0.0258 z m -3.8008,3.52382 -10.6133,16.65996 1.12344,0.66456 0.48834,-0.89142 -0.91467,-0.60409 5.48287,-7.73545 z m -4.65708,1.99109 -6.87038,15.20424 1.01906,0.42065 0.27389,-0.73174 -0.37879,-0.22428 1.12293,-1.7632 z m -1.55804,-4.6085 -5.75676,18.89703 0.76533,0.20568 1.09037,-2.41278 z m -8.35763,6.43164 0.009,0.12351 -0.005,-0.093 z m 1.62005,11.51661 -0.76532,0.0651 0.17983,2.43757 0.92346,-0.0987 z m 0.26872,-16.41398 -0.36793,11.1342 0.61908,5.23534 -0.51987,0.0444 0.20206,1.43661 h 0.65629 z" />
  </g>
</svg>
